<svg width="51" height="51" viewBox="0 0 51 51" fill="none" xmlns="http://www.w3.org/2000/svg">
<path d="M39.2084 32.8916C37.7663 32.8916 36.3565 33.3193 35.1574 34.1205C33.9583 34.9217 33.0237 36.0605 32.4718 37.3929C31.9199 38.7252 31.7755 40.1914 32.0569 41.6058C32.3382 43.0202 33.0327 44.3195 34.0524 45.3393C35.0722 46.359 36.3714 47.0535 37.7859 47.3348C39.2003 47.6162 40.6664 47.4718 41.9988 46.9199C43.3312 46.368 44.47 45.4334 45.2712 44.2343C46.0724 43.0352 46.5001 41.6254 46.5001 40.1833C46.4978 38.2501 45.7289 36.3967 44.3619 35.0298C42.995 33.6628 41.1416 32.8939 39.2084 32.8916ZM42.5435 38.8039L39.0136 42.6542C38.835 42.8489 38.5891 42.9685 38.3257 42.9888C38.0622 43.0091 37.8009 42.9286 37.5946 42.7635L35.9904 41.4803C35.8834 41.3948 35.7944 41.2892 35.7283 41.1693C35.6622 41.0494 35.6204 40.9176 35.6052 40.7816C35.5901 40.6455 35.6019 40.5078 35.64 40.3763C35.6781 40.2448 35.7418 40.1222 35.8273 40.0153C35.9129 39.9084 36.0186 39.8195 36.1386 39.7535C36.2586 39.6875 36.3903 39.6458 36.5264 39.6308C36.6625 39.6158 36.8002 39.6278 36.9316 39.666C37.0631 39.7043 37.1857 39.768 37.2925 39.8537L38.1358 40.5286L41.0074 37.396C41.1942 37.1928 41.454 37.0721 41.7298 37.0603C42.0055 37.0486 42.2747 37.1467 42.4782 37.3332C42.6816 37.5197 42.8028 37.7793 42.815 38.055C42.8273 38.3308 42.7296 38.6001 42.5435 38.8039Z" fill="white"/>
<path d="M11.0835 11.0167V3.89978C10.5288 4.07632 10.0351 4.40548 9.65881 4.84957L5.55724 9.77053C5.25952 10.1339 5.04774 10.5599 4.93774 11.0167H11.0835Z" fill="white"/>
<path d="M37.1252 3.72498H13.1668V11.0166C13.1652 11.5687 12.9452 12.0977 12.5549 12.488C12.1645 12.8784 11.6355 13.0984 11.0835 13.1H4.8335V44.35C4.83593 45.178 5.16596 45.9715 5.75148 46.557C6.337 47.1425 7.13044 47.4725 7.9585 47.475H34.1876C32.6317 46.4039 31.4591 44.8632 30.8413 43.0782C30.2235 41.2931 30.1928 39.3573 30.7537 37.5535C31.3146 35.7498 32.4377 34.1727 33.9589 33.0528C35.4801 31.933 37.3196 31.329 39.2085 31.3291C39.5567 31.3289 39.9045 31.3498 40.2502 31.3916V6.84998C40.2477 6.02192 39.9177 5.22848 39.3322 4.64296C38.7467 4.05744 37.9532 3.72741 37.1252 3.72498ZM16.6875 19.5375L17.0522 18.6312C17.2208 18.2138 17.4775 17.8377 17.8047 17.5285C18.1319 17.2193 18.5219 16.9843 18.9481 16.8396L20.7085 16.2562C20.7612 16.2371 20.8078 16.2042 20.8433 16.1609C20.8789 16.1176 20.9022 16.0655 20.9107 16.0101C20.9192 15.9547 20.9127 15.8981 20.8918 15.8461C20.8709 15.7941 20.8364 15.7486 20.7919 15.7146C20.3578 15.3333 20.0125 14.8615 19.7803 14.3324C19.5482 13.8033 19.4348 13.2297 19.4482 12.6521C19.4481 10.6 20.8334 8.93331 22.5418 8.93331C24.2503 8.93331 25.6356 10.6 25.6356 12.6521C25.6489 13.2297 25.5356 13.8033 25.3034 14.3324C25.0712 14.8615 24.726 15.3333 24.2918 15.7146C24.2473 15.7486 24.2128 15.7941 24.1919 15.8461C24.171 15.8981 24.1645 15.9547 24.173 16.0101C24.1816 16.0655 24.2048 16.1176 24.2404 16.1609C24.276 16.2042 24.3226 16.2371 24.3752 16.2562L26.1356 16.8396C26.5618 16.9843 26.9518 17.2193 27.279 17.5285C27.6062 17.8377 27.8628 18.2138 28.0314 18.6312L28.3961 19.5375C28.4349 19.6315 28.45 19.7337 28.4399 19.8349C28.4297 19.9361 28.3948 20.0333 28.3381 20.1178C28.2815 20.2023 28.2048 20.2715 28.115 20.3193C28.0252 20.367 27.9249 20.3919 27.8232 20.3916H17.2605C17.1588 20.3919 17.0585 20.3671 16.9687 20.3193C16.8789 20.2715 16.8022 20.2023 16.7455 20.1178C16.6888 20.0333 16.6539 19.9362 16.6438 19.8349C16.6337 19.7337 16.6487 19.6315 16.6875 19.5375ZM26.7085 42.2666H12.1252C11.8489 42.2666 11.5839 42.1569 11.3886 41.9615C11.1932 41.7662 11.0835 41.5012 11.0835 41.225C11.0835 40.9487 11.1932 40.6838 11.3886 40.4884C11.5839 40.2931 11.8489 40.1833 12.1252 40.1833H26.7085C26.9848 40.1833 27.2497 40.2931 27.4451 40.4884C27.6404 40.6838 27.7502 40.9487 27.7502 41.225C27.7502 41.5012 27.6404 41.7662 27.4451 41.9615C27.2497 42.1569 26.9848 42.2666 26.7085 42.2666ZM26.7085 38.1H12.1252C11.8489 38.1 11.5839 37.9902 11.3886 37.7949C11.1932 37.5995 11.0835 37.3346 11.0835 37.0583C11.0835 36.782 11.1932 36.5171 11.3886 36.3217C11.5839 36.1264 11.8489 36.0166 12.1252 36.0166H26.7085C26.9848 36.0166 27.2497 36.1264 27.4451 36.3217C27.6404 36.5171 27.7502 36.782 27.7502 37.0583C27.7502 37.3346 27.6404 37.5995 27.4451 37.7949C27.2497 37.9902 26.9848 38.1 26.7085 38.1ZM26.7085 33.9333H12.1252C11.8489 33.9333 11.5839 33.8236 11.3886 33.6282C11.1932 33.4329 11.0835 33.1679 11.0835 32.8916C11.0835 32.6154 11.1932 32.3504 11.3886 32.1551C11.5839 31.9597 11.8489 31.85 12.1252 31.85H26.7085C26.9848 31.85 27.2497 31.9597 27.4451 32.1551C27.6404 32.3504 27.7502 32.6154 27.7502 32.8916C27.7502 33.1679 27.6404 33.4329 27.4451 33.6282C27.2497 33.8236 26.9848 33.9333 26.7085 33.9333ZM32.9585 29.7666H12.1252C11.8489 29.7666 11.5839 29.6569 11.3886 29.4615C11.1932 29.2662 11.0835 29.0012 11.0835 28.725C11.0835 28.4487 11.1932 28.1838 11.3886 27.9884C11.5839 27.7931 11.8489 27.6833 12.1252 27.6833H32.9585C33.2348 27.6833 33.4997 27.7931 33.6951 27.9884C33.8904 28.1838 34.0002 28.4487 34.0002 28.725C34.0002 29.0012 33.8904 29.2662 33.6951 29.4615C33.4997 29.6569 33.2348 29.7666 32.9585 29.7666ZM32.9585 25.6H12.1252C11.8489 25.6 11.5839 25.4902 11.3886 25.2949C11.1932 25.0995 11.0835 24.8346 11.0835 24.5583C11.0835 24.282 11.1932 24.0171 11.3886 23.8217C11.5839 23.6264 11.8489 23.5166 12.1252 23.5166H32.9585C33.2348 23.5166 33.4997 23.6264 33.6951 23.8217C33.8904 24.0171 34.0002 24.282 34.0002 24.5583C34.0002 24.8346 33.8904 25.0995 33.6951 25.2949C33.4997 25.4902 33.2348 25.6 32.9585 25.6Z" fill="white"/>
</svg>
