<svg width="102" height="100" viewBox="0 0 102 100" fill="none" xmlns="http://www.w3.org/2000/svg">
<rect x="0.930359" width="100.806" height="100" rx="18.5185" fill="#263285"/>
<g clip-path="url(#clip0_62_1230)">
<path d="M30.9439 32.5531V63.7396C30.95 66.0376 31.8656 68.2397 33.4905 69.8646C35.1155 71.4895 37.3176 72.4051 39.6156 72.4113H51.3519C51.5189 71.2057 51.8652 70.0319 52.3792 68.9287C53.7854 65.8272 56.3285 63.3839 59.4837 62.1028C58.3467 61.3161 57.4181 60.2646 56.778 59.039C56.138 57.8135 55.8056 56.4506 55.8096 55.068C55.8119 52.7827 56.7207 50.5916 58.3367 48.9756C59.9526 47.3597 62.1437 46.4508 64.429 46.4486C65.2612 46.4454 66.089 46.5687 66.8842 46.8142C68.1894 47.2004 69.3835 47.893 70.3668 48.8341V32.5531C70.3666 30.2533 69.4529 28.0477 67.8267 26.4215C66.2005 24.7953 63.9949 23.8816 61.6952 23.8814H39.6156C37.3167 23.8846 35.1128 24.7992 33.4873 26.4248C31.8617 28.0503 30.9471 30.2542 30.9439 32.5531ZM41.4613 32.5182H59.8494C60.3112 32.5182 60.7541 32.7017 61.0807 33.0282C61.4072 33.3548 61.5907 33.7977 61.5907 34.2595C61.5907 34.7213 61.4072 35.1642 61.0807 35.4908C60.7541 35.8174 60.3112 36.0008 59.8494 36.0008H41.4613C40.9995 36.0008 40.5566 35.8174 40.23 35.4908C39.9035 35.1642 39.72 34.7213 39.72 34.2595C39.72 33.7977 39.9035 33.3548 40.23 33.0282C40.5566 32.7017 40.9995 32.5182 41.4613 32.5182ZM41.4613 41.7819H59.8494C60.3112 41.7819 60.7541 41.9654 61.0807 42.2919C61.4072 42.6185 61.5907 43.0614 61.5907 43.5232C61.5907 43.985 61.4072 44.4279 61.0807 44.7545C60.7541 45.081 60.3112 45.2645 59.8494 45.2645H41.4613C40.9995 45.2645 40.5566 45.081 40.23 44.7545C39.9035 44.4279 39.72 43.985 39.72 43.5232C39.72 43.0614 39.9035 42.6185 40.23 42.2919C40.5566 41.9654 40.9995 41.7819 41.4613 41.7819ZM41.4613 51.0282H49.8195C50.2814 51.0282 50.7243 51.2116 51.0508 51.5382C51.3774 51.8647 51.5608 52.3076 51.5608 52.7695C51.5608 53.2313 51.3774 53.6742 51.0508 54.0007C50.7243 54.3273 50.2814 54.5108 49.8195 54.5108H41.4613C40.9995 54.5108 40.5566 54.3273 40.23 54.0007C39.9035 53.6742 39.72 53.2313 39.72 52.7695C39.72 52.3076 39.9035 51.8647 40.23 51.5382C40.5566 51.2116 40.9995 51.0282 41.4613 51.0282Z" fill="white"/>
<path d="M64.4306 61.0755C67.7484 61.0755 70.4381 58.3858 70.4381 55.068C70.4381 51.7502 67.7484 49.0605 64.4306 49.0605C61.1128 49.0605 58.4232 51.7502 58.4232 55.068C58.4232 58.3858 61.1128 61.0755 64.4306 61.0755Z" fill="white"/>
<path d="M55.5495 76.1205H73.3281C73.7895 76.1191 74.2316 75.9352 74.5578 75.6089C74.8841 75.2827 75.068 74.8406 75.0694 74.3792C75.0694 71.5598 73.9494 68.8558 71.9557 66.8622C69.9621 64.8686 67.2582 63.7486 64.4388 63.7486C61.6194 63.7486 58.9154 64.8686 56.9218 66.8622C54.9282 68.8558 53.8082 71.5598 53.8082 74.3792C53.8095 74.8406 53.9934 75.2827 54.3197 75.609C54.6459 75.9353 55.0881 76.1191 55.5495 76.1205Z" fill="white"/>
</g>
<defs>
<clipPath id="clip0_62_1230">
<rect width="46.806" height="56" fill="white" transform="translate(27.9304 22)"/>
</clipPath>
</defs>
</svg>
