<svg width="51" height="51" viewBox="0 0 51 51" fill="none" xmlns="http://www.w3.org/2000/svg">
<path d="M43.8729 12.8555H34.7698V11.0348C34.7698 9.02666 33.1368 7.39355 31.1285 7.39355H20.2048C18.1966 7.39355 16.5635 9.02658 16.5635 11.0348V12.8554H7.46038C5.45211 12.8555 3.81909 14.4886 3.81909 16.4967V21.9586C3.81909 23.9669 5.45211 25.5999 7.46038 25.5999H22.0255V24.6896C22.0255 24.1864 22.4326 23.7792 22.9358 23.7792H28.3977C28.9009 23.7792 29.308 24.1864 29.308 24.6896V25.5999H43.8731C45.8812 25.5999 47.5142 23.9669 47.5142 21.9586V16.4967C47.5142 14.4886 45.8812 12.8555 43.8729 12.8555ZM31.1285 12.8555H20.2048V11.0348H31.1285V12.8555Z" fill="white"/>
<path d="M47.0093 26.5822C46.699 26.4284 46.3283 26.464 46.0544 26.672C45.4073 27.1619 44.6534 27.4205 43.8728 27.4205H29.3079V30.1515C29.3079 30.6547 28.9008 31.0618 28.3976 31.0618H22.9357C22.4325 31.0618 22.0254 30.6547 22.0254 30.1515V27.4205H7.46038C6.67984 27.4205 5.92602 27.1619 5.27878 26.672C5.00407 26.4622 4.63428 26.4266 4.32398 26.5822C4.0147 26.7361 3.81909 27.0516 3.81909 27.3975V40.165C3.81909 42.1732 5.45211 43.8063 7.46038 43.8063H43.873C45.8812 43.8063 47.5143 42.1733 47.5143 40.165V27.3975C47.5142 27.0516 47.3186 26.7361 47.0093 26.5822Z" fill="white"/>
</svg>
