<svg width="50" height="51" viewBox="0 0 50 51" fill="none" xmlns="http://www.w3.org/2000/svg">
<g clip-path="url(#clip0_375_122)">
<path d="M23.5943 13.9502C18.1809 14.261 13.1065 16.3627 9.05859 19.9709L15.0614 25.9734C16.3823 25.5044 17.8034 25.2481 19.2832 25.2481C20.7962 25.2481 22.2481 25.5158 23.5943 26.0052V13.9502Z" fill="white"/>
<path d="M29.052 29.8682L40.4071 19.5082C36.4511 16.183 31.5839 14.2475 26.4062 13.9502V27.4495C27.3984 28.1275 28.2894 28.9427 29.052 29.8682Z" fill="white"/>
<path d="M1.00781 37.9007V39.3065H6.63098V37.9007C6.63098 33.4604 8.9304 29.5476 12.4006 27.2892L7.07065 21.9592C3.15164 26.3556 1.00781 31.963 1.00781 37.9007Z" fill="white"/>
<path d="M24.9995 39.3536C23.4974 39.3536 22.0851 39.9387 21.023 41.0007C18.8309 43.1932 18.8309 46.7604 21.023 48.9529C22.0851 50.015 23.4974 50.6 24.9995 50.6C26.5012 50.6 27.9136 50.015 28.9756 48.9529C31.1682 46.7604 31.1682 43.1932 28.9756 41.0007C27.9136 39.9387 26.5012 39.3536 24.9995 39.3536Z" fill="white"/>
<path d="M43.0117 20.9374L25.8604 36.5856C27.7878 36.7796 29.5754 37.6242 30.9637 39.0124C32.3856 40.4343 33.1913 42.2421 33.3839 44.1018L48.9922 26.916V20.9374H43.0117Z" fill="white"/>
<path d="M49.947 9.19133C49.8309 8.84201 49.5376 8.58623 49.182 8.52477L47.8746 8.29837L47.2609 7.06558C47.0924 6.72755 46.7571 6.51697 46.3856 6.51697C46.0141 6.51697 45.6793 6.72755 45.5098 7.06603L44.8961 8.29882L43.5892 8.52523C43.2331 8.58668 42.9394 8.84201 42.8237 9.19178C42.7039 9.55059 42.7898 9.94194 43.0469 10.2144L43.9869 11.2095L43.7872 12.5951C43.732 12.9756 43.8902 13.3484 44.1993 13.5676C44.3665 13.6864 44.5622 13.7465 44.7583 13.7465C44.9106 13.7465 45.0638 13.7104 45.2043 13.6367L46.3851 13.0217L47.566 13.6367C47.8886 13.8057 48.2746 13.7781 48.5715 13.5676C48.881 13.3484 49.0387 12.9751 48.9836 12.5951L48.7838 11.2095L49.7238 10.2144C49.9809 9.94194 50.0668 9.55014 49.947 9.19133Z" fill="white"/>
<path d="M7.17654 9.19133C7.0604 8.84201 6.76711 8.58623 6.41147 8.52477L5.10411 8.29837L4.49043 7.06558C4.32187 6.72755 3.98655 6.51697 3.61509 6.51697C3.24363 6.51697 2.90877 6.72755 2.7393 7.06603L2.12562 8.29882L0.818715 8.52523C0.462615 8.58668 0.168878 8.84201 0.053191 9.19178C-0.0665633 9.55059 0.019298 9.94194 0.276431 10.2144L1.21639 11.2095L1.01665 12.5951C0.961516 12.9756 1.11968 13.3484 1.42878 13.5676C1.59599 13.6864 1.79166 13.7465 1.98779 13.7465C2.14008 13.7465 2.29327 13.7104 2.43382 13.6367L3.61464 13.0217L4.79546 13.6367C5.11812 13.8057 5.50405 13.7781 5.80095 13.5676C6.1105 13.3484 6.26821 12.9751 6.21308 12.5951L6.01334 11.2095L6.9533 10.2144C7.21043 9.94194 7.29629 9.55014 7.17654 9.19133Z" fill="white"/>
<path d="M28.5613 3.27434C28.4452 2.92502 28.1519 2.66924 27.7962 2.60778L26.4889 2.38138L25.8752 1.14859C25.7066 0.810562 25.3713 0.599976 24.9999 0.599976C24.6284 0.599976 24.2935 0.810563 24.1241 1.14904L23.5104 2.38183L22.2035 2.60823C21.8474 2.66969 21.5536 2.92502 21.438 3.27479C21.3182 3.6336 21.4041 4.02495 21.6612 4.29745L22.6012 5.29254L22.4014 6.67807C22.3463 7.05857 22.5044 7.43139 22.8135 7.65057C22.9808 7.76942 23.1764 7.82952 23.3726 7.82952C23.5248 7.82952 23.678 7.79337 23.8186 7.71971L24.9994 7.10467L26.1802 7.71971C26.5029 7.88872 26.8888 7.86115 27.1857 7.65057C27.4953 7.43139 27.653 7.05812 27.5978 6.67807L27.3981 5.29254L28.3381 4.29745C28.5952 4.02495 28.6811 3.63315 28.5613 3.27434Z" fill="white"/>
</g>
<defs>
<clipPath id="clip0_375_122">
<rect width="50" height="50" fill="white" transform="translate(0 0.599976)"/>
</clipPath>
</defs>
</svg>
