<svg width="50" height="51" viewBox="0 0 50 51" fill="none" xmlns="http://www.w3.org/2000/svg">
<g clip-path="url(#clip0_375_206)">
<path d="M25 27.3857C32.3967 27.3857 38.3929 21.3895 38.3929 13.9928C38.3929 6.59616 32.3967 0.599976 25 0.599976C17.6034 0.599976 11.6072 6.59616 11.6072 13.9928C11.6155 21.386 17.6068 27.3773 25 27.3857ZM18.75 9.97498C18.75 7.50623 21.084 5.46248 24.1072 5.12051V4.1714C24.1072 3.67829 24.5069 3.27855 25 3.27855C25.4931 3.27855 25.8929 3.67829 25.8929 4.1714V5.12051C28.9161 5.46248 31.25 7.50623 31.25 9.97498C31.25 10.4681 30.8503 10.8678 30.3572 10.8678C29.8641 10.8678 29.4643 10.4681 29.4643 9.97498C29.4643 8.49462 27.9018 7.21515 25.8929 6.91605V13.1562C28.9161 13.4982 31.25 15.5419 31.25 18.0107C31.25 20.4794 28.9161 22.5232 25.8929 22.8652V23.8143C25.8929 24.3074 25.4931 24.7071 25 24.7071C24.5069 24.7071 24.1072 24.3074 24.1072 23.8143V22.8652C21.084 22.5232 18.75 20.4794 18.75 18.0107C18.75 17.5176 19.1498 17.1178 19.6429 17.1178C20.136 17.1178 20.5358 17.5176 20.5358 18.0107C20.5358 19.491 22.0983 20.7705 24.1072 21.0696V14.8294C21.084 14.4875 18.75 12.4437 18.75 9.97498Z" fill="white"/>
<path d="M24.1071 6.91602C22.0981 7.21512 20.5356 8.49459 20.5356 9.97494C20.5356 11.4553 22.0981 12.7348 24.1071 13.0339V6.91602Z" fill="white"/>
<path d="M29.4643 18.0107C29.4643 16.5304 27.9018 15.2509 25.8928 14.9518V21.0696C27.9018 20.7705 29.4643 19.4911 29.4643 18.0107Z" fill="white"/>
<path d="M49.683 12.3535L41.6429 5.55439C41.3776 5.33343 41.0087 5.2852 40.6956 5.43051C40.3824 5.57582 40.1811 5.88864 40.1786 6.23385V25.9571C40.1799 26.4309 39.9914 26.8855 39.6554 27.2196L33.7625 33.1124C33.4285 33.4485 32.9738 33.6369 32.5 33.6356H17.5C17.0262 33.6369 16.5715 33.4485 16.2375 33.1124L10.3446 27.2196C10.0086 26.8855 9.82015 26.4309 9.82143 25.9571V6.23385C9.8231 5.88786 9.62135 5.57318 9.30625 5.43028C9.18447 5.37513 9.05244 5.34623 8.91875 5.34546C8.71208 5.34642 8.51268 5.42187 8.35714 5.55796L0.321429 12.3571C0.119288 12.5254 0.00168152 12.7744 0 13.0374V26.4928C0 33.0178 4.50804 37.7196 9.37946 41.8276C12.3259 44.316 14.1786 46.4258 14.9241 49.8481C15.0022 50.2754 15.3694 50.5892 15.8036 50.5999H18.75V43.4571C18.75 42.964 19.1497 42.5642 19.6429 42.5642C20.136 42.5642 20.5357 42.964 20.5357 43.4571V50.5999H29.4643V43.4571C29.4643 42.964 29.864 42.5642 30.3571 42.5642C30.8503 42.5642 31.25 42.964 31.25 43.4571V50.5999H34.1964C34.631 50.5902 34.9991 50.2766 35.0777 49.849C35.8232 46.4258 37.675 44.3133 40.6214 41.8285C45.492 37.7196 50 33.0178 50 26.4928V13.0374C50.0005 12.7738 49.8845 12.5235 49.683 12.3535Z" fill="white"/>
</g>
<defs>
<clipPath id="clip0_375_206">
<rect width="50" height="50" fill="white" transform="translate(0 0.599976)"/>
</clipPath>
</defs>
</svg>
