<svg width="153" height="39" viewBox="0 0 153 39" fill="none" xmlns="http://www.w3.org/2000/svg">
<mask id="mask0_155_489" style="mask-type:luminance" maskUnits="userSpaceOnUse" x="0" y="0" width="56" height="39">
<path d="M55.5916 0.662109H0.00195312V38.7077H55.5916V0.662109Z" fill="white"/>
</mask>
<g mask="url(#mask0_155_489)">
<path d="M25.9746 3.37891H32.3537L36.4546 12.8903L31.7586 15.932L25.9746 3.37891Z" fill="#263285"/>
<path d="M36.4551 23.7602L41.0116 20.5898L50.5803 38.7068H44.2012L36.4551 23.7602Z" fill="#263285"/>
<path d="M55.7281 6.13086L52.0051 13.4299L51.174 12.0685L22.037 31.0929L12.8627 20.0529L-3.03217 30.9565L-7.28605 33.8748L-7.28906 33.8682V27.4788L-3.03217 24.6395L14.0723 13.2296L22.4841 24.0361L48.3395 7.74236L47.4841 6.23527L55.7281 6.13086Z" fill="#00BC6B"/>
<path d="M22.6275 3.61719V7.59815H4.25494V30.9569L0.00105627 33.8752L-0.00195312 33.8686V3.61719H22.6275Z" fill="#263285"/>
<path d="M23.7476 34.7691V39.0006H4.25494V39.0192H-0.00195312V33.8687L0.00105627 33.8753L4.25494 30.957V34.7691H23.7476Z" fill="#263285"/>
</g>
<path d="M81.4788 3.95566V6.87948H71.5086V11.8158H80.4474V14.5878H71.5086V19.5621H81.7845V22.5239H68.3379V3.95566H81.4788ZM96.894 22.5239L92.2717 15.5371H92.1572L87.535 22.5239H83.6385L90.0562 12.9929L84.0587 3.95566H87.9933L92.1572 10.221H92.2717L96.4738 3.95566H100.37L94.411 12.9929L100.829 22.5239H96.894ZM117.591 17.3977L119.615 19.4481C117.68 21.6505 115.286 22.7517 112.434 22.7517C109.607 22.7517 107.251 21.853 105.366 20.0557C103.507 18.2331 102.578 15.9421 102.578 13.1828C102.578 10.3982 103.533 8.09459 105.443 6.27194C107.353 4.42397 109.76 3.5 112.663 3.5C115.515 3.5 117.922 4.5632 119.883 6.68964L117.896 8.85401C117.005 7.99333 116.165 7.39844 115.375 7.06933C114.586 6.74025 113.656 6.5757 112.587 6.5757C110.676 6.5757 109.072 7.18327 107.773 8.39835C106.5 9.61346 105.863 11.1576 105.863 13.0309C105.863 14.8789 106.5 16.4484 107.773 17.7394C109.047 19.0305 110.562 19.676 112.319 19.676C113.389 19.676 114.306 19.4988 115.07 19.1444C115.859 18.79 116.699 18.2077 117.591 17.3977ZM136.627 3.95566V6.87948H126.656V11.8158H135.595V14.5878H126.656V19.5621H136.932V22.5239H123.486V3.95566H136.627ZM140.964 22.5239V3.95566H144.134V19.5621H152.653V22.5239H140.964Z" fill="#263285"/>
<path d="M73.0613 38.4996C70.5119 38.4996 68.3379 36.3254 68.3379 33.7508C68.3379 31.1765 70.5119 29.0156 73.0613 29.0156C74.3363 29.0156 75.517 29.5492 76.3759 30.4162L75.6647 31.1365C74.9939 30.4295 74.0679 29.976 73.0613 29.976C71.0754 29.976 69.3979 31.7102 69.3979 33.7508C69.3979 35.8051 71.0754 37.5391 73.0613 37.5391C74.0679 37.5391 74.9939 37.0857 75.6647 36.3788L76.3759 37.099C75.517 37.9527 74.3363 38.4996 73.0613 38.4996ZM90.1533 38.3395L89.2274 36.2585H84.0879L83.1619 38.3395H82.0212L86.0874 29.1757H87.2281L91.294 38.3395H90.1533ZM84.5173 35.2715H88.7979L86.6643 30.4562L84.5173 35.2715ZM97.613 38.3395V29.1757H101.357C103.262 29.1757 104.752 30.3895 104.752 32.1102C104.752 33.831 103.262 35.0448 101.357 35.0448H98.6596V38.3395H97.613ZM98.6596 34.0577H101.169C102.672 34.0577 103.692 33.3375 103.692 32.1102C103.692 30.8831 102.672 30.1628 101.169 30.1628H98.6596V34.0577ZM111.08 38.3395V29.1757H112.126V38.3395H111.08ZM121.726 38.3395V30.1628H118.626V29.1757H125.872V30.1628H122.773V38.3395H121.726ZM138.923 38.3395L137.997 36.2585H132.858L131.932 38.3395H130.791L134.857 29.1757H135.998L140.064 38.3395H138.923ZM133.287 35.2715H137.568L135.434 30.4562L133.287 35.2715ZM147.282 37.3525H152.314V38.3395H146.235V29.1757H147.282V37.3525Z" fill="#263285" fill-opacity="0.8"/>
</svg>
