<svg width="23" height="16" viewBox="0 0 23 16" fill="none" xmlns="http://www.w3.org/2000/svg">
<circle cx="8" cy="8" r="7.5" stroke="#86EFAC"/>
<rect x="10.1787" y="3.89624" width="9.75586" height="8.59473" fill="white"/>
<path fill-rule="evenodd" clip-rule="evenodd" d="M14.3701 0C9.95762 0 6.37012 3.5875 6.37012 8C6.37012 12.4125 9.95762 16 14.3701 16C18.7826 16 22.3701 12.4125 22.3701 8C22.3701 3.5875 18.7826 0 14.3701 0Z" fill="#00BC6B"/>
<path fill-rule="evenodd" clip-rule="evenodd" d="M18.2383 5.30317C18.432 5.49692 18.432 5.81567 18.2383 6.00942L13.5508 10.6969C13.4539 10.7938 13.3258 10.8438 13.1977 10.8438C13.0695 10.8438 12.9414 10.7938 12.8445 10.6969L10.5008 8.35317C10.307 8.15942 10.307 7.84067 10.5008 7.64692C10.6945 7.45317 11.0133 7.45317 11.207 7.64692L13.1977 9.63755L17.532 5.30317C17.7258 5.1063 18.0445 5.1063 18.2383 5.30317Z" fill="white"/>
</svg>
