<svg width="624" height="144" viewBox="0 0 624 144" fill="none" xmlns="http://www.w3.org/2000/svg">
<g clip-path="url(#clip0_382_263)">
<mask id="mask0_382_263" style="mask-type:luminance" maskUnits="userSpaceOnUse" x="0" y="-10" width="223" height="153">
<path d="M222.366 -9.35352H0.0078125V142.829H222.366V-9.35352Z" fill="white"/>
</mask>
<g mask="url(#mask0_382_263)">
<path d="M103.898 1.51562H129.415L145.818 39.5612L127.034 51.728L103.898 1.51562Z" fill="white"/>
<path d="M145.82 83.0373L164.046 70.3557L202.321 142.824H176.805L145.82 83.0373Z" fill="white"/>
<path d="M222.912 12.5215L208.02 41.7176L204.696 36.2722L88.148 112.37L51.4508 68.2096L-12.1287 111.824L-29.1442 123.497L-29.1562 123.471V97.9132L-12.1287 86.556L56.2892 40.9164L89.9364 84.1424L193.358 18.9675L189.936 12.9391L222.912 12.5215Z" fill="#00BC6B"/>
<path d="M90.51 2.46875V18.3926H17.0198V111.828L0.0042251 123.501L-0.0078125 123.474V2.46875H90.51Z" fill="white"/>
<path d="M94.9904 127.077V144.003H17.0198V144.077H-0.0078125V123.475L0.0042251 123.501L17.0198 111.828V127.077H94.9904Z" fill="white"/>
</g>
<path d="M325.915 3.82265V15.5179H286.034V35.2633H321.79V46.3512H286.034V66.2484H327.138V78.0956H273.352V3.82265H325.915ZM387.576 78.0956L369.087 50.1484H368.629L350.14 78.0956H334.554L360.225 39.9718L336.235 3.82265H351.973L368.629 28.884H369.087L385.895 3.82265H401.48L377.644 39.9718L403.316 78.0956H387.576ZM470.364 57.5908L478.46 65.7924C470.72 74.602 461.144 79.0068 449.736 79.0068C438.428 79.0068 429.004 75.412 421.464 68.2228C414.028 60.9324 410.312 51.7684 410.312 40.7312C410.312 29.5928 414.132 20.3784 421.772 13.0878C429.412 5.69588 439.04 2 450.652 2C462.06 2 471.688 6.2528 479.532 14.7586L471.584 23.416C468.02 19.9733 464.66 17.5938 461.5 16.2773C458.344 14.961 454.624 14.3028 450.348 14.3028C442.704 14.3028 436.288 16.7331 431.092 21.5934C426 26.4538 423.452 32.6306 423.452 40.1236C423.452 47.5156 426 53.7936 431.092 58.9576C436.188 64.122 442.248 66.704 449.276 66.704C453.556 66.704 457.224 65.9952 460.28 64.5776C463.436 63.16 466.796 60.8308 470.364 57.5908ZM546.508 3.82265V15.5179H506.624V35.2633H542.38V46.3512H506.624V66.2484H547.728V78.0956H493.944V3.82265H546.508ZM563.856 78.0956V3.82265H576.536V66.2484H610.612V78.0956H563.856Z" fill="white"/>
<path d="M292.245 141.998C282.048 141.998 273.352 133.302 273.352 123.003C273.352 112.706 282.048 104.062 292.245 104.062C297.345 104.062 302.068 106.197 305.504 109.665L302.659 112.546C299.976 109.718 296.272 107.904 292.245 107.904C284.302 107.904 277.592 114.841 277.592 123.003C277.592 131.22 284.302 138.157 292.245 138.157C296.272 138.157 299.976 136.343 302.659 133.515L305.504 136.396C302.068 139.811 297.345 141.998 292.245 141.998ZM360.613 141.358L356.91 133.034H336.352L332.648 141.358H328.085L344.35 104.703H348.912L365.176 141.358H360.613ZM338.069 129.086H355.192L346.657 109.825L338.069 129.086ZM390.452 141.358V104.703H405.428C413.048 104.703 419.008 109.558 419.008 116.441C419.008 123.324 413.048 128.179 405.428 128.179H394.638V141.358H390.452ZM394.638 124.231H404.676C410.688 124.231 414.768 121.35 414.768 116.441C414.768 111.533 410.688 108.651 404.676 108.651H394.638V124.231ZM444.32 141.358V104.703H448.504V141.358H444.32ZM486.904 141.358V108.651H474.504V104.703H503.488V108.651H491.092V141.358H486.904ZM555.692 141.358L551.988 133.034H531.432L527.728 141.358H523.164L539.428 104.703H543.992L560.256 141.358H555.692ZM533.148 129.086H550.272L541.736 109.825L533.148 129.086ZM589.128 137.41H609.256V141.358H584.94V104.703H589.128V137.41Z" fill="white" fill-opacity="0.8"/>
</g>
<defs>
<clipPath id="clip0_382_263">
<rect width="624" height="144" fill="white"/>
</clipPath>
</defs>
</svg>
