<svg width="51" height="51" viewBox="0 0 51 51" fill="none" xmlns="http://www.w3.org/2000/svg">
<path d="M38.6765 30.2953C34.1089 30.2953 30.3931 34.0111 30.3931 38.5787C30.3931 43.1469 34.1089 46.8627 38.6765 46.8627C43.2446 46.8627 46.9604 43.1469 46.9604 38.5787C46.9604 34.0111 43.2441 30.2953 38.6765 30.2953ZM39.9634 43.1512V43.4024C39.9634 44.1364 39.3617 44.7338 38.6228 44.7338C37.8838 44.7338 37.2833 44.1364 37.2833 43.4024V43.3975C36.8791 43.3476 36.4733 43.2619 36.1163 43.1501C35.6052 42.9879 35.3063 42.4497 35.4348 41.9245L35.4934 41.6929C35.5575 41.4156 35.7327 41.1829 35.9839 41.0413C36.2378 40.8986 36.5411 40.8693 36.8194 40.9599C37.057 41.0413 37.3353 41.1053 37.6289 41.1449C37.8252 41.1764 38.0157 41.191 38.2121 41.191C38.6233 41.191 39.3129 41.1058 39.3129 40.5345C39.3129 40.2182 39.1035 39.9611 38.0358 39.5802C37.8399 39.5124 37.6506 39.4348 37.4612 39.3486C36.0848 38.7382 35.3849 37.8376 35.3849 36.6728C35.3849 35.4749 36.0902 34.4967 37.2833 34.0198V33.7556C37.2833 33.0215 37.8838 32.4242 38.6228 32.4242C39.3617 32.4242 39.9634 33.0215 39.9634 33.7556V33.7664C40.2108 33.7957 40.45 33.8418 40.6904 33.9053C40.9606 33.978 41.1852 34.1511 41.323 34.3925C41.4608 34.6329 41.4966 34.9139 41.4239 35.183L41.3653 35.3853C41.2177 35.9273 40.6399 36.2474 40.0811 36.0955C39.9384 36.0565 39.7757 36.0174 39.6048 35.9865C39.429 35.9572 39.2299 35.9414 39.0183 35.9414C38.4188 35.9414 38.0325 36.1606 38.0325 36.4997C38.0325 36.835 38.3282 37.0314 39.4697 37.4551L39.7795 37.5756C41.2731 38.2147 41.9686 39.1098 41.9686 40.3946C41.968 41.6619 41.2237 42.6781 39.9634 43.1512Z" fill="white"/>
<path fill-rule="evenodd" clip-rule="evenodd" d="M6.68745 38.3649V21.0038H40.0208V28.6427V29.0876C39.6465 29.0429 39.2657 29.0199 38.8796 29.0199C33.6087 29.0199 29.3208 33.3078 29.3208 38.5787C29.3208 39.7224 29.5226 40.8198 29.8926 41.8372H28.9097H10.1597C9.23888 41.8368 8.3559 41.4709 7.7048 40.8198C7.05371 40.1687 6.68778 39.2857 6.68745 38.3649ZM37.2222 5.608L42.0138 11.4622C42.5211 12.0837 42.7982 12.8613 42.7986 13.6636V17.5316C42.7969 18.0836 42.5769 18.6126 42.1866 19.003C41.7962 19.3933 41.2673 19.6133 40.7152 19.6149H5.993C5.44096 19.6133 4.912 19.3933 4.52165 19.003C4.1313 18.6126 3.91129 18.0836 3.90967 17.5316V13.6636C3.90999 12.8613 4.18716 12.0837 4.69439 11.4622L9.48606 5.608C9.81147 5.20982 10.2215 4.88917 10.6864 4.66934C11.1513 4.44951 11.6593 4.33604 12.1736 4.33717H34.5347C35.0489 4.33604 35.5569 4.44951 36.0218 4.66934C36.4867 4.88917 36.8968 5.20982 37.2222 5.608ZM12.4464 16.3461C12.3162 16.4764 12.243 16.653 12.243 16.8372V18.2261H13.6319V16.8372C13.6319 16.653 13.5587 16.4764 13.4285 16.3461C13.2983 16.2159 13.1216 16.1427 12.9374 16.1427C12.7533 16.1427 12.5766 16.2159 12.4464 16.3461ZM20.0853 14.9572C19.9551 15.0875 19.8819 15.2641 19.8819 15.4483V18.2261H21.2708V15.4483C21.2708 15.2641 21.1976 15.0875 21.0674 14.9572C20.9371 14.827 20.7605 14.7538 20.5763 14.7538C20.3922 14.7538 20.2155 14.827 20.0853 14.9572ZM27.5208 16.1427V18.2261H28.9097V16.1427C28.9097 15.9585 28.8365 15.7819 28.7063 15.6517C28.576 15.5214 28.3994 15.4483 28.2152 15.4483C28.031 15.4483 27.8544 15.5214 27.7242 15.6517C27.5939 15.7819 27.5208 15.9585 27.5208 16.1427ZM32.3819 14.7538V18.2261H33.7708V14.7538C33.7708 14.5697 33.6976 14.393 33.5674 14.2628C33.4371 14.1326 33.2605 14.0594 33.0763 14.0594C32.8922 14.0594 32.7155 14.1326 32.5853 14.2628C32.4551 14.393 32.3819 14.5697 32.3819 14.7538Z" fill="white"/>
<rect x="18.8589" y="28.3585" width="7.25488" height="12.0061" rx="1" fill="#263285"/>
</svg>
