<svg width="101" height="100" viewBox="0 0 101 100" fill="none" xmlns="http://www.w3.org/2000/svg">
<rect x="0.666718" width="100" height="100" rx="18.5185" fill="#263285"/>
<path fill-rule="evenodd" clip-rule="evenodd" d="M28.3172 61.1846C28.4047 61.7774 27.9949 62.3277 27.4048 62.4145C26.8093 62.5015 26.2628 62.0911 26.1754 61.4982C26.0881 60.9065 26.4978 60.3551 27.0878 60.2683C27.6834 60.1825 28.2353 60.5922 28.3172 61.1846ZM57.8399 38.0475C60.8578 41.3964 63.11 44.3044 64.5958 46.9135C67.4136 51.8611 66.7163 56.8484 63.9536 60.4992L61.4902 61.9339C60.8274 62.3199 60.1521 62.5646 59.4542 62.6843C59.7454 62.2973 59.9707 61.8343 60.1156 61.2973C60.6636 59.2663 59.448 57.2578 57.4965 56.5816L57.3702 56.5378L57.2387 56.5138C56.7876 56.4312 56.3393 56.3379 55.8935 56.2355C56.2918 55.7027 56.5256 55.0466 56.5067 54.2564C56.5034 54.1204 56.4956 54.0008 56.4833 53.8986C56.3253 52.5973 55.6213 51.7501 54.6878 51.1865C53.8678 50.6914 52.8844 50.4449 51.9828 50.2969C51.3326 50.1901 50.6477 50.0094 50.1461 49.682C49.7575 49.4282 49.4787 49.0609 49.4526 48.5238C49.4244 47.9426 49.6782 47.4738 50.0779 47.1487C50.3911 46.8941 50.7906 46.7173 51.2237 46.6301C51.398 46.595 51.5773 46.5747 51.7584 46.57C51.7775 46.5711 51.7969 46.5718 51.8163 46.5718C51.8397 46.5718 51.863 46.5709 51.886 46.5693C52.1254 46.5728 52.3666 46.6035 52.6022 46.6632C53.3264 46.8468 53.9857 47.3241 54.3329 48.1511C54.541 48.647 55.1118 48.8805 55.6077 48.6723C56.1036 48.4643 56.3371 47.8935 56.1291 47.3975C55.5177 45.9413 54.3536 45.1 53.074 44.7756C52.9802 44.7519 52.8856 44.731 52.7905 44.713V43.9581C52.7905 43.42 52.3543 42.9839 51.8163 42.9839C51.2783 42.9839 50.8421 43.42 50.8421 43.9581V44.7275C50.1041 44.8764 49.411 45.1879 48.8526 45.6418C47.9946 46.3394 47.4505 47.3522 47.5119 48.6151C47.5735 49.884 48.2066 50.7351 49.0882 51.3107C49.8567 51.8124 50.8005 52.0719 51.6708 52.2148C52.3698 52.3295 53.116 52.511 53.6831 52.8533C54.1366 53.1271 54.4773 53.5273 54.5502 54.1269C54.5598 54.2068 54.565 54.2649 54.5659 54.302C54.5772 54.7787 54.3491 55.142 54.0067 55.402C53.8904 55.4901 53.7615 55.5685 53.6232 55.6373C51.1069 54.8972 48.7691 53.9378 46.2843 53.1317C43.6901 52.2899 41.2726 53.2425 39.0314 54.5409L37.5049 55.4253C37.0192 52.7622 37.4568 49.8312 39.1184 46.9136C40.6044 44.3047 42.8566 41.3965 45.8743 38.0478C46.253 38.1711 46.6568 38.2381 47.0757 38.2381H56.6387C57.0575 38.238 57.4612 38.1709 57.8399 38.0475ZM47.0756 36.488H56.6386C57.8176 36.488 58.7822 35.5233 58.7822 34.3445C58.7822 33.1655 57.8177 32.201 56.6386 32.201H47.0756C45.8965 32.201 44.9321 33.1655 44.9321 34.3444C44.9319 35.5234 45.8965 36.488 47.0756 36.488ZM46.9976 30.4519L45.237 28.6913C44.3804 27.8346 44.3804 26.4328 45.237 25.5762C45.9656 24.8475 47.119 24.7243 47.9861 25.2808C48.3081 25.4876 48.678 25.5205 49.0315 25.3743C49.3849 25.2278 49.623 24.9431 49.7047 24.5691C49.9206 23.5803 50.8059 22.834 51.8572 22.8338C52.8895 22.8338 53.7898 23.5615 54.0098 24.5691C54.0914 24.9431 54.3297 25.2278 54.6831 25.3743C55.0366 25.5207 55.4063 25.4876 55.7282 25.2808C56.5799 24.7342 57.734 24.8327 58.4774 25.5759V25.5762C59.334 26.4328 59.334 27.8346 58.4774 28.6913L56.7168 30.4519C56.6908 30.4513 56.6648 30.4509 56.6387 30.4509H47.0757C47.0496 30.4509 47.0235 30.4514 46.9976 30.4519ZM31.8108 60.7464L37.6483 71.0475L39.8448 69.7799C40.0579 69.6564 40.3093 69.6236 40.5497 69.6875L54.3443 72.7257C56.1692 73.2137 57.885 72.9726 59.4531 72.0088L76.2044 61.5979C77.117 61.0385 77.3955 59.3959 76.7673 58.3442C75.8548 56.8208 73.4398 57.0006 70.3034 58.8261L62.371 63.4461C60.7209 64.41 58.9396 64.7219 56.9343 64.4007C56.5682 64.3416 56.2076 64.2787 55.8525 64.2105C55.7759 64.205 49.1044 62.4708 48.3395 62.2647C47.8423 62.1325 47.5472 61.6243 47.6838 61.131C47.815 60.636 48.3231 60.3431 48.8149 60.4753C49.5962 60.6846 54.328 62.0259 56.1038 62.3713C57.0109 62.4292 58.0654 62.1768 58.4261 60.8414C58.7212 59.7464 58.0763 58.6345 56.9235 58.2351C53.6834 57.6417 50.5524 56.5112 48.039 55.601C47.1593 55.2835 46.3998 55.0092 45.7441 54.7961C43.6786 54.1263 41.7171 55.0055 39.9085 56.055L31.8108 60.7464ZM37.4367 74.4517L28.5084 58.6754C28.421 58.5213 28.2789 58.4109 28.1041 58.3623C28.044 58.3464 27.984 58.3382 27.9237 58.3382C27.8091 58.3382 27.6997 58.3672 27.6014 58.423L24.5634 60.1414C24.241 60.3234 24.1317 60.7315 24.3119 61.0512L33.2402 76.8273C33.4206 77.1481 33.8304 77.2607 34.1472 77.0799L37.1852 75.3609C37.3383 75.274 37.4475 75.1304 37.4966 74.9582C37.546 74.7855 37.5241 74.6058 37.4367 74.4517Z" fill="white"/>
</svg>
