<svg width="51" height="51" viewBox="0 0 51 51" fill="none" xmlns="http://www.w3.org/2000/svg">
<g clip-path="url(#clip0_375_173)">
<path d="M30.6903 4.37964C24.113 4.37964 18.7622 9.73042 18.7622 16.3078C18.7622 22.8859 24.113 28.2367 30.6903 28.2367C37.2685 28.2367 42.6192 22.8859 42.6192 16.3078C42.6192 9.73042 37.2677 4.37964 30.6903 4.37964ZM32.5435 22.8921V23.2539C32.5435 24.3109 31.677 25.171 30.613 25.171C29.5489 25.171 28.6841 24.3109 28.6841 23.2539V23.2468C28.1021 23.175 27.5177 23.0515 27.0036 22.8906C26.2677 22.657 25.8372 21.882 26.0224 21.1257L26.1067 20.7921C26.1989 20.3929 26.4513 20.0578 26.813 19.8539C27.1786 19.6484 27.6153 19.6062 28.0161 19.7367C28.3583 19.8539 28.7591 19.946 29.1817 20.0031C29.4645 20.0484 29.7388 20.0695 30.0216 20.0695C30.6138 20.0695 31.6067 19.9468 31.6067 19.1242C31.6067 18.6687 31.3052 18.2984 29.7677 17.75C29.4856 17.6523 29.213 17.5406 28.9403 17.4164C26.9583 16.5375 25.9505 15.2406 25.9505 13.5632C25.9505 11.8382 26.9661 10.4296 28.6841 9.74292V9.36245C28.6841 8.30542 29.5489 7.44526 30.613 7.44526C31.677 7.44526 32.5435 8.30542 32.5435 9.36245V9.37808C32.8997 9.42026 33.2442 9.48667 33.5903 9.57808C33.9794 9.68276 34.3028 9.93198 34.5013 10.2796C34.6997 10.6257 34.7513 11.0304 34.6466 11.4179L34.5622 11.7093C34.3497 12.4898 33.5177 12.9507 32.713 12.732C32.5075 12.6757 32.2731 12.6195 32.0271 12.575C31.7739 12.5328 31.4872 12.5101 31.1825 12.5101C30.3192 12.5101 29.763 12.8257 29.763 13.314C29.763 13.7968 30.1888 14.0796 31.8325 14.6898L32.2786 14.8632C34.4294 15.7835 35.431 17.0726 35.431 18.9226C35.4302 20.7476 34.3583 22.2109 32.5435 22.8921Z" fill="white"/>
<path d="M13.0199 43.3148C13.7691 42.8906 14.6816 42.8836 15.4418 43.2882C22.352 46.9648 25.723 46.9757 27.0105 46.732C27.0105 46.732 37.4699 46.3875 48.1957 36.4086L49.0582 35.5461C49.8371 34.7672 49.9996 33.5632 49.4543 32.6062C48.5621 31.039 46.5098 30.5875 45.0426 31.6359L41.7012 33.5109C39.4895 34.7523 37.3387 36.1054 35.316 37.6351C28.2137 43.0062 21.9949 38.0047 21.9949 38.0047C26.8027 39.6929 31.441 38.3265 33.5223 36.6109C35.4254 35.1047 35.3598 33.2953 31.6707 33.0461C25.9926 32.6625 24.2348 31.6382 23.6918 31.0148C23.1996 30.45 22.6402 29.9437 21.9863 29.5781C14.3723 25.325 6.85352 32.0422 6.85352 32.0422L7.28398 32.8414L12.1473 41.8742L12.8973 43.2679C12.9207 43.3101 12.9723 43.3328 13.0191 43.3156" fill="white"/>
<path d="M5.66611 32.6031L11.8052 43.8578L7.14424 46.7571L0.891113 35.0469L5.66611 32.6031Z" fill="white"/>
</g>
<defs>
<clipPath id="clip0_375_173">
<rect width="50" height="50" fill="white" transform="translate(0.333252 0.599976)"/>
</clipPath>
</defs>
</svg>
