<svg width="100" height="100" viewBox="0 0 100 100" fill="none" xmlns="http://www.w3.org/2000/svg">
<rect width="100" height="100" rx="18.5185" fill="#263285"/>
<path d="M61.6667 38.3333C60.1201 38.3315 58.6375 37.7163 57.5439 36.6227C56.4504 35.5292 55.8352 34.0465 55.8333 32.5V24.3333H36C34.4529 24.3333 32.9692 24.9479 31.8752 26.0419C30.7812 27.1358 30.1667 28.6196 30.1667 30.1666V69.8333C30.1667 71.3804 30.7812 72.8641 31.8752 73.9581C32.9692 75.0521 34.4529 75.6666 36 75.6666H59.3333C57.2478 75.6689 55.1998 75.112 53.4025 74.054C51.6052 72.996 50.1244 71.4755 49.1142 69.6509C48.1041 67.8264 47.6015 65.7644 47.6587 63.6796C47.716 61.5948 48.3311 59.5635 49.4399 57.7972C50.5487 56.0308 52.1108 54.594 53.9634 53.6362C55.8161 52.6785 57.8916 52.2349 59.9738 52.3516C62.0561 52.4683 64.0691 53.1411 65.8031 54.2998C67.5371 55.4586 68.9288 57.0609 69.8333 58.9401V38.3333H61.6667ZM38.3333 34.8333H51.1667C51.4761 34.8333 51.7728 34.9562 51.9916 35.175C52.2104 35.3938 52.3333 35.6906 52.3333 36C52.3333 36.3094 52.2104 36.6061 51.9916 36.8249C51.7728 37.0437 51.4761 37.1666 51.1667 37.1666H38.3333C38.0239 37.1666 37.7272 37.0437 37.5084 36.8249C37.2896 36.6061 37.1667 36.3094 37.1667 36C37.1667 35.6906 37.2896 35.3938 37.5084 35.175C37.7272 34.9562 38.0239 34.8333 38.3333 34.8333ZM44.1667 67.5H38.3333C38.0239 67.5 37.7272 67.3771 37.5084 67.1583C37.2896 66.9395 37.1667 66.6427 37.1667 66.3333C37.1667 66.0239 37.2896 65.7271 37.5084 65.5084C37.7272 65.2896 38.0239 65.1666 38.3333 65.1666H44.1667C44.4761 65.1666 44.7728 65.2896 44.9916 65.5084C45.2104 65.7271 45.3333 66.0239 45.3333 66.3333C45.3333 66.6427 45.2104 66.9395 44.9916 67.1583C44.7728 67.3771 44.4761 67.5 44.1667 67.5ZM37.1667 60.5C37.1667 60.1906 37.2896 59.8938 37.5084 59.675C37.7272 59.4562 38.0239 59.3333 38.3333 59.3333H43C43.3094 59.3333 43.6062 59.4562 43.8249 59.675C44.0437 59.8938 44.1667 60.1906 44.1667 60.5C44.1667 60.8094 44.0437 61.1061 43.8249 61.3249C43.6062 61.5437 43.3094 61.6666 43 61.6666H38.3333C38.0239 61.6666 37.7272 61.5437 37.5084 61.3249C37.2896 61.1061 37.1667 60.8094 37.1667 60.5ZM45.3333 55.8333H38.3333C38.0239 55.8333 37.7272 55.7104 37.5084 55.4916C37.2896 55.2728 37.1667 54.9761 37.1667 54.6666C37.1667 54.3572 37.2896 54.0605 37.5084 53.8417C37.7272 53.6229 38.0239 53.5 38.3333 53.5H45.3333C45.6427 53.5 45.9395 53.6229 46.1583 53.8417C46.3771 54.0605 46.5 54.3572 46.5 54.6666C46.5 54.9761 46.3771 55.2728 46.1583 55.4916C45.9395 55.7104 45.6427 55.8333 45.3333 55.8333ZM61.6667 50H38.3333C38.0239 50 37.7272 49.8771 37.5084 49.6583C37.2896 49.4395 37.1667 49.1427 37.1667 48.8333C37.1667 48.5239 37.2896 48.2271 37.5084 48.0084C37.7272 47.7896 38.0239 47.6666 38.3333 47.6666H61.6667C61.9761 47.6666 62.2728 47.7896 62.4916 48.0084C62.7104 48.2271 62.8333 48.5239 62.8333 48.8333C62.8333 49.1427 62.7104 49.4395 62.4916 49.6583C62.2728 49.8771 61.9761 50 61.6667 50ZM61.6667 44.1666H41.8333C41.5239 44.1666 41.2272 44.0437 41.0084 43.8249C40.7896 43.6061 40.6667 43.3094 40.6667 43C40.6667 42.6906 40.7896 42.3938 41.0084 42.175C41.2272 41.9562 41.5239 41.8333 41.8333 41.8333H61.6667C61.9761 41.8333 62.2728 41.9562 62.4916 42.175C62.7104 42.3938 62.8333 42.6906 62.8333 43C62.8333 43.3094 62.7104 43.6061 62.4916 43.8249C62.2728 44.0437 61.9761 44.1666 61.6667 44.1666Z" fill="white"/>
<path d="M69.1497 35.3163L58.8503 25.017C58.6523 24.8217 58.4207 24.6636 58.1667 24.5503V32.5C58.1667 33.4282 58.5354 34.3185 59.1918 34.9748C59.8482 35.6312 60.7384 36 61.6667 36H69.6163C69.503 35.7459 69.345 35.5144 69.1497 35.3163Z" fill="white"/>
<path d="M72.5293 73.905L67.368 68.7343C68.5262 66.7729 68.9291 64.4563 68.5011 62.2189C68.0732 59.9816 66.8437 57.9772 65.0434 56.5817C63.243 55.1861 60.9954 54.4953 58.722 54.6387C56.4486 54.7821 54.3056 55.7499 52.6949 57.3606C51.0842 58.9714 50.1164 61.1143 49.973 63.3877C49.8296 65.6611 50.5204 67.9087 51.9159 69.7091C53.3115 71.5094 55.3159 72.7389 57.5532 73.1668C59.7905 73.5948 62.1072 73.1919 64.0686 72.0337L69.2393 77.195C69.4553 77.411 69.7118 77.5824 69.994 77.6993C70.2763 77.8162 70.5788 77.8764 70.8843 77.8764C71.1898 77.8764 71.4923 77.8162 71.7745 77.6993C72.0568 77.5824 72.3133 77.411 72.5293 77.195C72.7453 76.979 72.9167 76.7225 73.0336 76.4403C73.1505 76.158 73.2107 75.8555 73.2107 75.55C73.2107 75.2445 73.1505 74.942 73.0336 74.6597C72.9167 74.3775 72.7453 74.121 72.5293 73.905ZM53.501 64C53.501 62.8463 53.8431 61.7185 54.484 60.7592C55.125 59.7999 56.0361 59.0522 57.102 58.6107C58.1679 58.1692 59.3408 58.0537 60.4723 58.2787C61.6039 58.5038 62.6433 59.0594 63.4591 59.8752C64.2749 60.691 64.8305 61.7304 65.0555 62.862C65.2806 63.9935 65.1651 65.1664 64.7236 66.2323C64.2821 67.2982 63.5344 68.2093 62.5751 68.8502C61.6158 69.4912 60.488 69.8333 59.3343 69.8333C58.5682 69.8333 57.8097 69.6824 57.102 69.3893C56.3942 69.0961 55.7512 68.6665 55.2095 68.1248C54.6678 67.5831 54.2381 66.94 53.945 66.2323C53.6518 65.5246 53.501 64.766 53.501 64Z" fill="white"/>
</svg>
