<svg width="20" height="20" viewBox="0 0 20 20" fill="none" xmlns="http://www.w3.org/2000/svg">
<g clip-path="url(#clip0_334_163)">
<g clip-path="url(#clip1_334_163)">
<path d="M19.1606 5.89215L17.1188 4.67051L16.6588 2.76622C16.4545 1.92165 15.6723 1.3586 14.8145 1.4261L12.4782 1.60692L11.1399 0.421919C10.4807 -0.140542 9.52165 -0.140542 8.86021 0.421333L7.52181 1.60688L5.18548 1.42606C4.33747 1.36657 3.54497 1.92215 3.36243 2.69692C3.32466 2.81434 2.64235 4.93524 2.68665 4.79747L0.839698 5.89153C0.0998542 6.34586 -0.196552 7.25793 0.134737 8.0602L0.931807 9.99196L0.135323 11.9232C-0.196552 12.726 0.100401 13.6375 0.839698 14.0913L2.87946 15.3043L3.34122 17.2172C3.54435 18.0612 4.32314 18.6214 5.18544 18.5573L7.49657 18.3788L8.86013 19.5777C9.19032 19.8592 9.59489 20 10 20C10.4045 20 10.8097 19.8592 11.1399 19.5777L12.5034 18.3788L14.8145 18.5573C15.6877 18.6265 16.4556 18.0618 16.6588 17.2172L17.1188 15.3129L19.1606 14.0913C19.8993 13.6375 20.1958 12.726 19.865 11.9232L19.0679 9.992L19.8656 8.05965C20.1963 7.25801 19.8999 6.3459 19.1606 5.89215ZM10 16.4453C6.44607 16.4453 3.5547 13.554 3.5547 10C3.5547 6.44606 6.44607 3.55469 10 3.55469C13.554 3.55469 16.4453 6.44606 16.4453 10C16.4453 13.554 13.554 16.4453 10 16.4453Z" fill="#263285"/>
<path d="M10 4.72656C7.09207 4.72656 4.72656 7.09207 4.72656 10C4.72656 12.9079 7.09207 15.2734 10 15.2734C12.9079 15.2734 15.2734 12.9079 15.2734 10C15.2734 7.09207 12.9079 4.72656 10 4.72656ZM13.3439 8.65645L9.82832 12.1721C9.71387 12.2865 9.56395 12.3438 9.41406 12.3438C9.26418 12.3438 9.11422 12.2865 8.9998 12.1721L6.65605 9.82832C6.42719 9.59945 6.42719 9.22863 6.65605 8.99977C6.88492 8.7709 7.25574 8.7709 7.48461 8.99977L9.41406 10.9293L12.5154 7.82789C12.7443 7.59902 13.1151 7.59902 13.344 7.82789C13.5729 8.05676 13.5729 8.42758 13.3439 8.65645Z" fill="#263285"/>
</g>
</g>
<defs>
<clipPath id="clip0_334_163">
<rect width="20" height="20" fill="white"/>
</clipPath>
<clipPath id="clip1_334_163">
<rect width="20" height="20" fill="white"/>
</clipPath>
</defs>
</svg>
