<svg width="50" height="51" viewBox="0 0 50 51" fill="none" xmlns="http://www.w3.org/2000/svg">
<g clip-path="url(#clip0_308_181)">
<path d="M2.33042 23.0837C3.25529 24.2907 4.97116 24.4899 6.14881 23.5836L25.0001 8.52181L43.8513 23.5854C45.0099 24.4769 46.7289 24.3069 47.6696 23.0869C48.5844 21.901 48.3698 20.191 47.1711 19.2685L26.6607 2.92847C26.182 2.56016 25.6063 2.36475 25.0001 2.36475C24.3926 2.36475 23.8195 2.55889 23.3395 2.92847L2.83034 19.2666C1.62411 20.1929 1.42034 21.9065 2.33042 23.0837Z" fill="white"/>
<path d="M41.4278 5.08765H38.7049C37.9531 5.08765 37.3435 5.69721 37.3435 6.44909V7.91772L42.7893 12.2752V6.44909C42.7893 5.69721 42.1796 5.08765 41.4278 5.08765Z" fill="white"/>
<path d="M42.7892 41.9372V26.0633C42.5926 25.9486 42.3706 25.8825 42.1896 25.7432L24.9997 12.0131L7.85235 25.7073C7.65422 25.8599 7.42195 25.931 7.21021 26.0543V41.9372C7.21021 42.6891 7.81977 43.2987 8.57165 43.2987H12.5393C11.8059 41.6279 11.3853 39.791 11.3853 37.8529C11.3853 30.3464 17.4932 24.1477 24.9997 24.1477C32.5062 24.1477 38.7049 30.3464 38.7049 37.8529C38.7049 39.791 38.2843 41.6279 37.5508 43.2987H41.4277C42.1795 43.2987 42.7892 42.6891 42.7892 41.9372Z" fill="white"/>
<path d="M35.9822 37.853C35.9822 31.8377 31.0152 26.8707 24.9999 26.8707C18.9846 26.8707 14.1084 31.8377 14.1084 37.853C14.1084 43.8682 18.9846 48.8352 24.9999 48.8352C31.0152 48.8352 35.9822 43.8682 35.9822 37.853ZM23.6385 46.1124V44.4036C22.5796 44.0272 21.6923 43.2423 21.2374 42.166C20.9448 41.4733 21.2679 40.6742 21.9606 40.3818C22.6493 40.092 23.4524 40.4124 23.7449 41.1051C23.9589 41.6102 24.4508 41.9373 24.9999 41.9373C25.7511 41.9373 26.3614 41.327 26.3614 40.5758C26.3614 39.8247 25.7511 39.2144 24.9999 39.2144C22.7477 39.2144 20.9156 37.3823 20.9156 35.1301C20.9156 33.3575 22.0572 31.8604 23.6385 31.2965V29.5935C23.6385 28.841 24.2474 28.2321 24.9999 28.2321C25.7524 28.2321 26.3614 28.841 26.3614 29.5935V31.3023C27.42 31.6787 28.3065 32.4636 28.7625 33.5399C29.055 34.2312 28.7319 35.0303 28.0392 35.3241C27.3545 35.6166 26.5488 35.2949 26.255 34.6008C26.041 34.0957 25.5477 33.7686 24.9999 33.7686C24.2488 33.7686 23.6385 34.3789 23.6385 35.1301C23.6385 35.8812 24.2488 36.4915 24.9999 36.4915C27.2521 36.4915 29.0842 38.3236 29.0842 40.5758C29.0842 42.3484 27.9426 43.8455 26.3614 44.4094V46.1124C26.3614 46.8649 25.7524 47.4738 24.9999 47.4738C24.2474 47.4738 23.6385 46.8649 23.6385 46.1124Z" fill="white"/>
</g>
<defs>
<clipPath id="clip0_308_181">
<rect width="50" height="50" fill="white" transform="translate(0 0.599976)"/>
</clipPath>
</defs>
</svg>
